<svg xmlns:dc="http://purl.org/dc/elements/1.1/" xmlns:cc="http://creativecommons.org/ns#" xmlns:rdf="http://www.w3.org/1999/02/22-rdf-syntax-ns#" xmlns:svg="http://www.w3.org/2000/svg" xmlns="http://www.w3.org/2000/svg" xmlns:sodipodi="http://sodipodi.sourceforge.net/DTD/sodipodi-0.dtd" xmlns:inkscape="http://www.inkscape.org/namespaces/inkscape" version="1.1" x="0px" y="0px" viewBox="0 0 100 100"><g transform="translate(0,-952.36218)"><path style="color:#000000;enable-background:accumulate;" d="m 79.991546,978.36219 c -6.0034,0 -11.00623,6.99238 -11.00623,15.98259 -1.7095,1.10205 -3.65763,1.99452 -5.19044,3.27769 -0.0453,-1.47258 -0.72113,-2.86418 -2.18874,-4.12052 -5.13906,7.18275 -13.95352,17.46735 -23.13811,19.75975 -9.79243,2.0689 -19.75779,0.051 -27.421779,-4.1517 -0.33801,-0.1758 -0.62382,-0.4502 -0.81297,-0.7804 -1.1470905,-10e-5 -2.3392105,0 -3.4707105,0 -0.89216,0.1006 -1.6502699,0.8574 -1.7509899,1.748 -0.10073,0.8907 0.4660199,1.826 1.3132399,2.1227 l 7.7543905,1.2799 c 2.563039,1.4499 5.291449,2.4103 7.660539,2.9343 l -14.7896295,5.8998 c 13.9344095,7.9494 21.9290195,3.0481 23.9823395,-4.8697 3.76623,0.058 7.36257,-0.3227 10.03694,-1.1237 1.9343,-0.6437 4.05279,-1.5436 6.191,-2.591 l 5.8158,11.5812 c 5.00283,0.9989 14.00793,0.9989 15.0085,0 -0.98171,-7.8407 -7.74942,-12.7948 -16.50935,-13.9224 2.0793,-1.2404 4.05799,-2.5966 5.81579,-4.0268 6.90019,0.7823 13.84446,-4.9662 23.70093,-1.0302 l -1.00057,-4.9945 c 4.00227,2.9967 13.00737,5.9934 15.0085,-4.99459 0,-8.99021 -7.00396,-17.98042 -15.0085,-17.98042 z m -49.02777,5.99347 c -4.99668,1.81398 -9.3409,5.28453 -12.63216,9.17751 3.29742,2.55534 5.72504,5.10305 8.09834,7.46063 l 12.60089,-5.057 c 0.10005,-4.22207 1.34919,-8.92796 3.0017,-12.61127 -3.69228,-0.54799 -7.75438,-0.26734 -11.06877,1.03013 z m 15.03977,-0.15608 c -1.84089,3.7531 -3.14644,8.5177 -3.03297,13.07951 0.003,0.0624 0.003,0.12486 0,0.1873 8e-5,0.0104 8e-5,0.0208 0,0.0312 2.28064,2.24958 4.89492,4.72841 7.0665,6.27441 3.90312,-3.6343 7.42771,-7.90928 9.94314,-11.42505 -2.70839,-3.2447 -8.05588,-6.4817 -13.97667,-8.14738 z m 31.98687,6.14956 c 1.10519,0 2.00113,0.89445 2.00113,1.99782 0,1.10337 -0.89594,1.99782 -2.00113,1.99782 -1.1052,0 -2.00114,-0.89445 -2.00114,-1.99782 0,-1.10337 0.89594,-1.99782 2.00114,-1.99782 z m -62.06641,6.36806 c -2.502789,3.7754 -3.970999,7.6448 -3.970999,10.6134 3.204059,1.5994 6.576409,2.8837 10.036929,3.7147 0.89033,-2.6233 1.79129,-4.8844 1.9386,-6.9299 -2.47954,-2.4718 -4.73237,-4.86342 -8.00453,-7.3982 z m 23.85726,3.24647 -11.88173,4.74483 c -0.22057,2.4082 -1.12782,4.8443 -1.90733,7.086 3.93506,0.5249 7.95118,0.4246 11.97554,-0.4682 2.96746,-0.7407 6.08004,-2.5548 9.06763,-4.9321 -2.5121,-1.8047 -4.90227,-4.0939 -7.25411,-6.43053 z" fill="#000000" stroke="none" marker="none" visibility="visible" display="inline" overflow="visible"></path></g></svg>